<svg width="33" height="32" viewBox="0 0 33 32" fill="none" xmlns="http://www.w3.org/2000/svg">
<path d="M10.5 28.6666C8.43878 28.658 6.6243 27.3059 6.02663 25.3333H3.16663V22.6666H6.02663C6.71316 20.3639 9.03601 18.9589 11.3942 19.42C13.7524 19.8811 15.3751 22.0575 15.1438 24.4492C14.9124 26.8409 12.9028 28.666 10.5 28.6666ZM10.5 22C9.39539 22 8.49996 22.8954 8.49996 24C8.49996 25.1045 9.39539 26 10.5 26C11.6045 26 12.5 25.1045 12.5 24C12.5 22.8954 11.6045 22 10.5 22ZM29.8333 25.3333H16.5V22.6666H29.8333V25.3333ZM22.5 20.6666C20.0971 20.666 18.0875 18.8409 17.8562 16.4492C17.6249 14.0575 19.2475 11.8811 21.6057 11.42C23.9639 10.9589 26.2868 12.3639 26.9733 14.6666H29.8333V17.3333H26.9733C26.3756 19.3059 24.5611 20.658 22.5 20.6666ZM22.5 14C21.3954 14 20.5 14.8954 20.5 16C20.5 17.1045 21.3954 18 22.5 18C23.6045 18 24.5 17.1045 24.5 16C24.5 14.8954 23.6045 14 22.5 14ZM16.5 17.3333H3.16663V14.6666H16.5V17.3333ZM13.1666 12.6666C10.7638 12.666 8.75414 10.8409 8.52283 8.44918C8.29152 6.05748 9.91415 3.88108 12.2724 3.42C14.6306 2.95893 16.9534 4.36392 17.64 6.66662H29.8333V9.33329H17.64C17.0419 11.3057 15.2277 12.6576 13.1666 12.6666ZM13.1666 5.99995C12.0759 6.00143 11.1875 6.87652 11.1696 7.96707C11.1517 9.05762 12.0108 9.96145 13.1009 9.99878C14.1909 10.0361 15.1099 9.19318 15.1666 8.10395V8.49062V7.99995C15.1666 6.89538 14.2712 5.99995 13.1666 5.99995ZM7.16663 9.33329H3.16663V6.66662H7.16663V9.33329Z" fill="white"/>
</svg>
